<svg width="14" height="11" viewBox="0 0 14 11" fill="none" xmlns="http://www.w3.org/2000/svg">
<path fill-rule="evenodd" clip-rule="evenodd" d="M2.33333 0.666504C1.8471 0.666504 1.38079 0.859658 1.03697 1.20347C0.693154 1.54729 0.5 2.01361 0.5 2.49984V8.49984C0.5 8.98607 0.693154 9.45238 1.03697 9.7962C1.38079 10.14 1.8471 10.3332 2.33333 10.3332H11.6667C12.1529 10.3332 12.6192 10.14 12.963 9.7962C13.3068 9.45238 13.5 8.98607 13.5 8.49984V2.49984C13.5 2.01361 13.3068 1.54729 12.963 1.20347C12.6192 0.859658 12.1529 0.666504 11.6667 0.666504H2.33333ZM10 4.6665C9.77899 4.6665 9.56703 4.7543 9.41074 4.91058C9.25446 5.06686 9.16667 5.27882 9.16667 5.49984C9.16667 5.72085 9.25446 5.93281 9.41074 6.08909C9.56703 6.24537 9.77899 6.33317 10 6.33317C10.221 6.33317 10.433 6.24537 10.5893 6.08909C10.7455 5.93281 10.8333 5.72085 10.8333 5.49984C10.8333 5.27882 10.7455 5.06686 10.5893 4.91058C10.433 4.7543 10.221 4.6665 10 4.6665Z" fill="#4B5563"/>
</svg>
