<svg width="12" height="13" viewBox="0 0 12 13" fill="none" xmlns="http://www.w3.org/2000/svg">
<path d="M0 11.3C0 11.6183 0.126428 11.9235 0.351472 12.1485C0.576515 12.3736 0.88174 12.5 1.2 12.5H10.8C11.1183 12.5 11.4235 12.3736 11.6485 12.1485C11.8736 11.9235 12 11.6183 12 11.3V5.3H0V11.3ZM8.4 6.8C8.4 6.72044 8.43161 6.64413 8.48787 6.58787C8.54413 6.53161 8.62044 6.5 8.7 6.5H9.3C9.37957 6.5 9.45587 6.53161 9.51213 6.58787C9.56839 6.64413 9.6 6.72044 9.6 6.8V7.4C9.6 7.47957 9.56839 7.55587 9.51213 7.61213C9.45587 7.66839 9.37957 7.7 9.3 7.7H8.7C8.62044 7.7 8.54413 7.66839 8.48787 7.61213C8.43161 7.55587 8.4 7.47957 8.4 7.4V6.8ZM8.4 9.2C8.4 9.12044 8.43161 9.04413 8.48787 8.98787C8.54413 8.93161 8.62044 8.9 8.7 8.9H9.3C9.37957 8.9 9.45587 8.93161 9.51213 8.98787C9.56839 9.04413 9.6 9.12044 9.6 9.2V9.8C9.6 9.87957 9.56839 9.95587 9.51213 10.0121C9.45587 10.0684 9.37957 10.1 9.3 10.1H8.7C8.62044 10.1 8.54413 10.0684 8.48787 10.0121C8.43161 9.95587 8.4 9.87957 8.4 9.8V9.2ZM5.4 6.8C5.4 6.72044 5.43161 6.64413 5.48787 6.58787C5.54413 6.53161 5.62044 6.5 5.7 6.5H6.3C6.37957 6.5 6.45587 6.53161 6.51213 6.58787C6.56839 6.64413 6.6 6.72044 6.6 6.8V7.4C6.6 7.47957 6.56839 7.55587 6.51213 7.61213C6.45587 7.66839 6.37957 7.7 6.3 7.7H5.7C5.62044 7.7 5.54413 7.66839 5.48787 7.61213C5.43161 7.55587 5.4 7.47957 5.4 7.4V6.8ZM5.4 9.2C5.4 9.12044 5.43161 9.04413 5.48787 8.98787C5.54413 8.93161 5.62044 8.9 5.7 8.9H6.3C6.37957 8.9 6.45587 8.93161 6.51213 8.98787C6.56839 9.04413 6.6 9.12044 6.6 9.2V9.8C6.6 9.87957 6.56839 9.95587 6.51213 10.0121C6.45587 10.0684 6.37957 10.1 6.3 10.1H5.7C5.62044 10.1 5.54413 10.0684 5.48787 10.0121C5.43161 9.95587 5.4 9.87957 5.4 9.8V9.2ZM2.4 6.8C2.4 6.72044 2.43161 6.64413 2.48787 6.58787C2.54413 6.53161 2.62043 6.5 2.7 6.5H3.3C3.37957 6.5 3.45587 6.53161 3.51213 6.58787C3.56839 6.64413 3.6 6.72044 3.6 6.8V7.4C3.6 7.47957 3.56839 7.55587 3.51213 7.61213C3.45587 7.66839 3.37957 7.7 3.3 7.7H2.7C2.62043 7.7 2.54413 7.66839 2.48787 7.61213C2.43161 7.55587 2.4 7.47957 2.4 7.4V6.8ZM2.4 9.2C2.4 9.12044 2.43161 9.04413 2.48787 8.98787C2.54413 8.93161 2.62043 8.9 2.7 8.9H3.3C3.37957 8.9 3.45587 8.93161 3.51213 8.98787C3.56839 9.04413 3.6 9.12044 3.6 9.2V9.8C3.6 9.87957 3.56839 9.95587 3.51213 10.0121C3.45587 10.0684 3.37957 10.1 3.3 10.1H2.7C2.62043 10.1 2.54413 10.0684 2.48787 10.0121C2.43161 9.95587 2.4 9.87957 2.4 9.8V9.2Z" fill="#4B5563"/>
<path d="M12 2.9C12 2.58174 11.8736 2.27652 11.6485 2.05147C11.4235 1.82643 11.1183 1.7 10.8 1.7H9.6V1.1C9.6 0.94087 9.53679 0.788258 9.42426 0.675736C9.31174 0.563214 9.15913 0.5 9 0.5C8.84087 0.5 8.68826 0.563214 8.57574 0.675736C8.46321 0.788258 8.4 0.94087 8.4 1.1V1.7H6.6V1.1C6.6 0.94087 6.53679 0.788258 6.42426 0.675736C6.31174 0.563214 6.15913 0.5 6 0.5C5.84087 0.5 5.68826 0.563214 5.57574 0.675736C5.46321 0.788258 5.4 0.94087 5.4 1.1V1.7H3.6V1.1C3.6 0.94087 3.53679 0.788258 3.42426 0.675736C3.31174 0.563214 3.15913 0.5 3 0.5C2.84087 0.5 2.68826 0.563214 2.57574 0.675736C2.46321 0.788258 2.4 0.94087 2.4 1.1V1.7H1.2C0.88174 1.7 0.576515 1.82643 0.351472 2.05147C0.126428 2.27652 0 2.58174 0 2.9V4.1H12V2.9Z" fill="#4B5563"/>
</svg>
