<svg width="16" height="15" viewBox="0 0 16 15" fill="none" xmlns="http://www.w3.org/2000/svg">
<path d="M14.0001 0.833252L12.6667 2.16659M12.6667 2.16659L14.6667 4.16659L12.3334 6.49992L10.3334 4.49992M12.6667 2.16659L10.3334 4.49992M7.59339 7.23992C7.93762 7.57956 8.21126 7.98394 8.39856 8.42978C8.58587 8.87561 8.68313 9.3541 8.68475 9.83767C8.68637 10.3213 8.59231 10.8004 8.408 11.2475C8.22369 11.6945 7.95277 12.1007 7.61082 12.4427C7.26888 12.7846 6.86268 13.0556 6.4156 13.2399C5.96852 13.4242 5.48939 13.5182 5.00582 13.5166C4.52224 13.515 4.04376 13.4177 3.59792 13.2304C3.15209 13.0431 2.74771 12.7695 2.40806 12.4253C1.74015 11.7337 1.37057 10.8075 1.37892 9.84611C1.38728 8.88473 1.7729 7.96508 2.45273 7.28525C3.13256 6.60542 4.0522 6.2198 5.01359 6.21145C5.97498 6.20309 6.90119 6.57267 7.59273 7.24059L7.59339 7.23992ZM7.59339 7.23992L10.3334 4.49992" stroke="#4D5358" stroke-width="1.5" stroke-linecap="round" stroke-linejoin="round"/>
</svg>
