<svg width="13" height="15" viewBox="0 0 13 15" fill="none" xmlns="http://www.w3.org/2000/svg">
<path d="M10.7427 2.59062C11.8443 3.69204 12.4743 5.1787 12.4995 6.73623C12.5248 8.29376 11.9433 9.80007 10.878 10.9366L10.7427 11.0766L7.91404 13.9046C7.55512 14.2633 7.07329 14.4722 6.56614 14.4889C6.05899 14.5056 5.56445 14.3289 5.1827 13.9946L5.0867 13.9046L2.25737 11.076C1.13215 9.95073 0.5 8.4246 0.5 6.83329C0.5 5.24198 1.13215 3.71585 2.25737 2.59062C3.3826 1.4654 4.90873 0.833252 6.50004 0.833252C8.09135 0.833252 9.61748 1.4654 10.7427 2.59062ZM6.50004 4.83329C6.23739 4.83329 5.97732 4.88502 5.73467 4.98553C5.49202 5.08604 5.27154 5.23336 5.08582 5.41908C4.90011 5.60479 4.75279 5.82527 4.65228 6.06792C4.55177 6.31057 4.50004 6.57065 4.50004 6.83329C4.50004 7.09593 4.55177 7.356 4.65228 7.59866C4.75279 7.84131 4.90011 8.06179 5.08582 8.2475C5.27154 8.43322 5.49202 8.58054 5.73467 8.68105C5.97732 8.78156 6.23739 8.83329 6.50004 8.83329C7.03047 8.83329 7.53918 8.62258 7.91425 8.2475C8.28932 7.87243 8.50004 7.36372 8.50004 6.83329C8.50004 6.30286 8.28932 5.79415 7.91425 5.41908C7.53918 5.044 7.03047 4.83329 6.50004 4.83329Z" fill="#111928"/>
</svg>
