<svg width="131" height="58" viewBox="0 0 131 58" fill="none" xmlns="http://www.w3.org/2000/svg">
<g clip-path="url(#clip0_405_187)">
<path d="M99.407 41.0102V26.0147C99.407 21.4924 101.675 17.2716 105.443 14.7746L106.367 14.1651C111.001 11.0912 117.05 11.183 121.592 14.3944C125.164 16.9177 127.294 21.0271 127.294 25.4051V41.0167" stroke="#1D1D1B" stroke-width="6" stroke-miterlimit="10"/>
<path d="M71.5264 41.0102V26.0147C71.5264 21.4924 73.7941 17.2716 77.5626 14.7746L78.4867 14.1651C83.1204 11.0912 89.1697 11.183 93.7116 14.3944C97.2835 16.9177 99.4136 21.0271 99.4136 25.4051V41.0167" stroke="#1D1D1B" stroke-width="6" stroke-miterlimit="10"/>
<path d="M71.5264 37.8184C71.6837 41.659 71.0348 45.3817 68.8589 48.5079C66.683 51.6342 63.2618 53.8691 59.526 54.6097" stroke="#1D1D1B" stroke-width="6" stroke-miterlimit="10"/>
<path d="M31.5864 17.6583L31.842 32.6538C31.9207 37.1761 29.7251 41.4296 26.0024 43.9922L25.0914 44.6214C20.5102 47.7739 14.4609 47.787 9.86651 44.6542C6.24871 42.1899 4.05313 38.1199 3.98103 33.7418L3.71232 18.1368" stroke="#1D1D1B" stroke-width="6" stroke-miterlimit="10"/>
<path d="M59.4671 17.1799L59.7227 32.1754C59.8013 36.6977 57.6057 40.9512 53.8831 43.5138L52.9721 44.143C48.3908 47.2954 42.3415 47.3086 37.7472 44.1757C34.1294 41.7114 31.9338 37.6414 31.8617 33.2634L31.593 17.6583" stroke="#1D1D1B" stroke-width="6" stroke-miterlimit="10"/>
<path d="M59.5195 20.3717C59.2967 16.531 59.88 12.8018 62.0034 9.64281C64.1269 6.47723 67.5088 4.18989 71.2315 3.38375" stroke="#1D1D1B" stroke-width="6" stroke-miterlimit="10"/>
</g>
<defs>
<clipPath id="clip0_405_187">
<rect width="129.487" height="57" fill="white" transform="translate(0.75647 0.5)"/>
</clipPath>
</defs>
</svg>
