<svg width="15" height="11" viewBox="0 0 15 11" fill="none" xmlns="http://www.w3.org/2000/svg">
<path d="M7.50004 6.06863L13.6834 1.12694C13.4459 0.938665 13.1449 0.834658 12.8334 0.833252H2.16671C1.85516 0.834658 1.55414 0.938665 1.31671 1.12694L7.50004 6.06863Z" fill="#111928"/>
<path d="M8.33337 7.04116C8.09074 7.21438 7.79418 7.30897 7.48871 7.31059C7.20404 7.31113 6.92693 7.22506 6.69937 7.06543L0.833374 2.37885V8.92214C0.833374 9.25219 0.97385 9.56872 1.2239 9.8021C1.47395 10.0355 1.81309 10.1666 2.16671 10.1666H12.8334C13.187 10.1666 13.5261 10.0355 13.7762 9.8021C14.0262 9.56872 14.1667 9.25219 14.1667 8.92214V2.37885L8.33337 7.04116Z" fill="#111928"/>
</svg>
