<svg width="16" height="15" viewBox="0 0 16 15" fill="none" xmlns="http://www.w3.org/2000/svg">
<path d="M14.526 0.486602L14.9193 0.879936C15.4613 1.4226 15.3793 2.3846 14.7347 3.0286L6.62334 11.1399L3.99534 12.1013C3.66534 12.2226 3.344 12.0653 3.27867 11.7513C3.25659 11.6374 3.26699 11.5195 3.30867 11.4113L4.28867 8.7606L12.3773 0.671269C13.022 0.0272688 13.984 -0.0553979 14.526 0.487269V0.486602ZM6.26934 1.29327C6.35689 1.29327 6.44358 1.31051 6.52446 1.34402C6.60534 1.37752 6.67884 1.42663 6.74074 1.48853C6.80265 1.55044 6.85175 1.62393 6.88526 1.70481C6.91876 1.7857 6.936 1.87239 6.936 1.95994C6.936 2.04748 6.91876 2.13417 6.88526 2.21506C6.85175 2.29594 6.80265 2.36943 6.74074 2.43134C6.67884 2.49325 6.60534 2.54235 6.52446 2.57586C6.44358 2.60936 6.35689 2.6266 6.26934 2.6266H3.60267C3.24905 2.6266 2.90991 2.76708 2.65986 3.01713C2.40981 3.26717 2.26934 3.60631 2.26934 3.95994V11.9599C2.26934 12.3136 2.40981 12.6527 2.65986 12.9027C2.90991 13.1528 3.24905 13.2933 3.60267 13.2933H11.6027C11.9563 13.2933 12.2954 13.1528 12.5455 12.9027C12.7955 12.6527 12.936 12.3136 12.936 11.9599V9.29327C12.936 9.11646 13.0062 8.94689 13.1313 8.82187C13.2563 8.69684 13.4259 8.6266 13.6027 8.6266C13.7795 8.6266 13.9491 8.69684 14.0741 8.82187C14.1991 8.94689 14.2693 9.11646 14.2693 9.29327V11.9599C14.2693 12.6672 13.9884 13.3455 13.4883 13.8456C12.9882 14.3457 12.3099 14.6266 11.6027 14.6266H3.60267C2.89543 14.6266 2.21715 14.3457 1.71705 13.8456C1.21696 13.3455 0.936005 12.6672 0.936005 11.9599V3.95994C0.936005 3.25269 1.21696 2.57441 1.71705 2.07432C2.21715 1.57422 2.89543 1.29327 3.60267 1.29327H6.26934Z" fill="#76A9FA"/>
</svg>
