<svg width="15" height="15" viewBox="0 0 15 15" fill="none" xmlns="http://www.w3.org/2000/svg">
<path d="M11.7187 14.5C11.1087 14.5 10.2519 14.2793 8.96873 13.5625C7.40842 12.6875 6.20155 11.8796 4.64967 10.3318C3.15342 8.83652 2.4253 7.86839 1.40623 6.01402C0.254983 3.92027 0.451233 2.82277 0.670608 2.3537C0.931858 1.79308 1.31748 1.45777 1.81592 1.12495C2.09903 0.939465 2.39863 0.78046 2.71092 0.649954C2.74217 0.636517 2.77123 0.623704 2.79717 0.612142C2.95186 0.542454 3.18623 0.437142 3.48311 0.549642C3.68123 0.624017 3.85811 0.776204 4.13498 1.04964C4.7028 1.60964 5.47873 2.85683 5.76498 3.46933C5.95717 3.88214 6.08436 4.15464 6.08467 4.46027C6.08467 4.81808 5.90467 5.09402 5.68623 5.39183C5.6453 5.44777 5.60467 5.5012 5.5653 5.55308C5.32748 5.86558 5.2753 5.95589 5.30967 6.11714C5.37936 6.4412 5.89905 7.40589 6.75311 8.25808C7.60717 9.11027 8.54405 9.59714 8.86936 9.66652C9.03748 9.70245 9.12967 9.64808 9.45217 9.40183C9.49842 9.36652 9.54592 9.32996 9.59561 9.29339C9.92873 9.04558 10.1919 8.87027 10.5412 8.87027H10.5431C10.8472 8.87027 11.1075 9.00214 11.5387 9.21964C12.1012 9.50339 13.3859 10.2693 13.9494 10.8378C14.2234 11.114 14.3762 11.2903 14.4509 11.4881C14.5634 11.7859 14.4575 12.0193 14.3884 12.1756C14.3769 12.2015 14.364 12.23 14.3506 12.2615C14.2191 12.5732 14.0591 12.8722 13.8728 13.1546C13.5406 13.6515 13.204 14.0362 12.6422 14.2978C12.3537 14.4343 12.0379 14.5034 11.7187 14.5Z" fill="black"/>
</svg>
