<svg width="15" height="11" viewBox="0 0 15 11" fill="none" xmlns="http://www.w3.org/2000/svg">
<path d="M12.8334 0.166748H2.16671C1.81309 0.166748 1.47395 0.307224 1.2239 0.557272C0.97385 0.807321 0.833374 1.14646 0.833374 1.50008V9.50008C0.833374 9.8537 0.97385 10.1928 1.2239 10.4429C1.47395 10.6929 1.81309 10.8334 2.16671 10.8334H12.8334C13.187 10.8334 13.5261 10.6929 13.7762 10.4429C14.0262 10.1928 14.1667 9.8537 14.1667 9.50008V1.50008C14.1667 1.14646 14.0262 0.807321 13.7762 0.557272C13.5261 0.307224 13.187 0.166748 12.8334 0.166748ZM5.16671 2.16675C5.49634 2.16675 5.81858 2.2645 6.09266 2.44763C6.36674 2.63077 6.58036 2.89107 6.70651 3.19561C6.83265 3.50015 6.86566 3.83526 6.80135 4.15857C6.73704 4.48187 6.57831 4.77884 6.34522 5.01193C6.11213 5.24501 5.81516 5.40375 5.49186 5.46806C5.16856 5.53237 4.83345 5.49936 4.5289 5.37321C4.22436 5.24707 3.96406 5.03345 3.78092 4.75937C3.59779 4.48528 3.50004 4.16305 3.50004 3.83341C3.50004 3.39139 3.67564 2.96746 3.9882 2.6549C4.30076 2.34234 4.72468 2.16675 5.16671 2.16675ZM2.84271 8.84741L2.94737 8.43075C3.04065 7.90777 3.31325 7.43363 3.7183 7.08991C4.12335 6.74618 4.63552 6.55435 5.16671 6.54741C5.69522 6.55471 6.20484 6.74509 6.60869 7.08609C7.01254 7.42709 7.28562 7.8976 7.38137 8.41741L7.48737 8.83208L2.84271 8.84741ZM11.5 8.16675H9.50004C9.32323 8.16675 9.15366 8.09651 9.02864 7.97149C8.90361 7.84646 8.83337 7.67689 8.83337 7.50008C8.83337 7.32327 8.90361 7.1537 9.02864 7.02868C9.15366 6.90365 9.32323 6.83342 9.50004 6.83342H11.5C11.6769 6.83342 11.8464 6.90365 11.9714 7.02868C12.0965 7.1537 12.1667 7.32327 12.1667 7.50008C12.1667 7.67689 12.0965 7.84646 11.9714 7.97149C11.8464 8.09651 11.6769 8.16675 11.5 8.16675ZM11.5 6.16675H9.50004C9.32323 6.16675 9.15366 6.09651 9.02864 5.97149C8.90361 5.84646 8.83337 5.67689 8.83337 5.50008C8.83337 5.32327 8.90361 5.1537 9.02864 5.02868C9.15366 4.90365 9.32323 4.83342 9.50004 4.83342H11.5C11.6769 4.83342 11.8464 4.90365 11.9714 5.02868C12.0965 5.1537 12.1667 5.32327 12.1667 5.50008C12.1667 5.67689 12.0965 5.84646 11.9714 5.97149C11.8464 6.09651 11.6769 6.16675 11.5 6.16675ZM11.5 4.16675H9.50004C9.32323 4.16675 9.15366 4.09651 9.02864 3.97149C8.90361 3.84646 8.83337 3.67689 8.83337 3.50008C8.83337 3.32327 8.90361 3.1537 9.02864 3.02868C9.15366 2.90365 9.32323 2.83341 9.50004 2.83341H11.5C11.6769 2.83341 11.8464 2.90365 11.9714 3.02868C12.0965 3.1537 12.1667 3.32327 12.1667 3.50008C12.1667 3.67689 12.0965 3.84646 11.9714 3.97149C11.8464 4.09651 11.6769 4.16675 11.5 4.16675Z" fill="#111928"/>
</svg>
