<svg width="12" height="12" viewBox="0 0 12 12" fill="none" xmlns="http://www.w3.org/2000/svg">
<path d="M2 5.66667V2H5.66667V5.66667H2ZM2 10V6.33333H5.66667V10H2ZM6.33333 5.66667V2H10V5.66667H6.33333ZM6.33333 10V6.33333H10V10H6.33333ZM1.33333 12C0.966667 12 0.652889 11.8696 0.392 11.6087C0.131111 11.3478 0.000444444 11.0338 0 10.6667V1.33333C0 0.966667 0.130667 0.652889 0.392 0.392C0.653333 0.131111 0.967111 0.000444444 1.33333 0H10.6667C11.0333 0 11.3473 0.130667 11.6087 0.392C11.87 0.653333 12.0004 0.967111 12 1.33333V10.6667C12 11.0333 11.8696 11.3473 11.6087 11.6087C11.3478 11.87 11.0338 12.0004 10.6667 12H1.33333ZM1.33333 10.6667H10.6667V1.33333H1.33333V10.6667Z" fill="#111928"/>
</svg>
