<svg width="16" height="16" viewBox="0 0 16 16" fill="none" xmlns="http://www.w3.org/2000/svg">
<g clip-path="url(#clip0_513_757)">
<path d="M6.50009 16C6.34208 16.0008 6.18758 15.9533 6.05725 15.864C5.92691 15.7746 5.82695 15.6476 5.77072 15.5L4.52572 12.2625C4.5005 12.1972 4.46193 12.138 4.41247 12.0885C4.36302 12.0391 4.30377 12.0005 4.23853 11.9753L1.00009 10.7293C0.852576 10.6727 0.725694 10.5727 0.636193 10.4425C0.546692 10.3123 0.498779 10.158 0.498779 9.99997C0.498779 9.84196 0.546692 9.68767 0.636193 9.55745C0.725694 9.42723 0.852576 9.32722 1.00009 9.2706L4.23759 8.0256C4.30283 8.00038 4.36208 7.96181 4.41154 7.91235C4.46099 7.8629 4.49957 7.80365 4.52478 7.73841L5.77072 4.49997C5.82734 4.35245 5.92735 4.22557 6.05757 4.13607C6.18779 4.04657 6.34208 3.99866 6.50009 3.99866C6.6581 3.99866 6.8124 4.04657 6.94262 4.13607C7.07283 4.22557 7.17285 4.35245 7.22947 4.49997L8.47447 7.73747C8.49968 7.80271 8.53826 7.86196 8.58771 7.91141C8.63717 7.96087 8.69642 7.99944 8.76165 8.02466L11.9804 9.2631C12.1339 9.32 12.2662 9.42284 12.3592 9.5576C12.4522 9.69236 12.5014 9.8525 12.5001 10.0162C12.4977 10.1715 12.4488 10.3225 12.3596 10.4496C12.2705 10.5767 12.1452 10.6742 12.0001 10.7293L8.76259 11.9743C8.69735 11.9996 8.63811 12.0381 8.58865 12.0876C8.53919 12.137 8.50062 12.1963 8.47541 12.2615L7.22947 15.5C7.17324 15.6476 7.07327 15.7746 6.94294 15.864C6.81261 15.9533 6.65811 16.0008 6.50009 16Z" fill="#4B5563"/>
<path d="M2.74994 5.50003C2.6573 5.50003 2.56684 5.47196 2.49047 5.41952C2.4141 5.36708 2.35541 5.29274 2.32213 5.20628L1.79525 3.83628C1.78383 3.80632 1.76621 3.77911 1.74354 3.75644C1.72086 3.73377 1.69365 3.71614 1.66369 3.70472L0.293691 3.17785C0.207247 3.14456 0.132915 3.08586 0.0804885 3.00949C0.0280618 2.93313 0 2.84267 0 2.75003C0 2.6574 0.0280618 2.56694 0.0804885 2.49058C0.132915 2.41421 0.207247 2.35551 0.293691 2.32222L1.66369 1.79535C1.69362 1.78388 1.72081 1.76623 1.74347 1.74357C1.76614 1.7209 1.78378 1.69372 1.79525 1.66379L2.31744 0.305973C2.34689 0.226036 2.39757 0.155636 2.46402 0.102338C2.53048 0.0490409 2.6102 0.0148613 2.69463 0.00347314C2.79599 -0.00884866 2.89856 0.0130196 2.98608 0.0656104C3.0736 0.118201 3.14105 0.198504 3.17775 0.293786L3.70463 1.66379C3.7161 1.69372 3.73374 1.7209 3.75641 1.74357C3.77908 1.76623 3.80626 1.78388 3.83619 1.79535L5.20619 2.32222C5.29263 2.35551 5.36697 2.41421 5.41939 2.49058C5.47182 2.56694 5.49988 2.6574 5.49988 2.75003C5.49988 2.84267 5.47182 2.93313 5.41939 3.00949C5.36697 3.08586 5.29263 3.14456 5.20619 3.17785L3.83619 3.70472C3.80623 3.71614 3.77902 3.73377 3.75635 3.75644C3.73367 3.77911 3.71605 3.80632 3.70463 3.83628L3.17775 5.20628C3.14447 5.29274 3.08578 5.36708 3.00941 5.41952C2.93304 5.47196 2.84258 5.50003 2.74994 5.50003Z" fill="#4B5563"/>
<path d="M12.5001 8C12.399 7.99997 12.3003 7.96932 12.2171 7.91208C12.1338 7.85485 12.0698 7.77371 12.0335 7.67938L11.3198 5.82407C11.3072 5.79137 11.2879 5.76168 11.2632 5.73692C11.2384 5.71216 11.2087 5.69287 11.176 5.68032L9.32071 4.96657C9.22645 4.93025 9.14541 4.86623 9.08825 4.78295C9.03108 4.69966 9.00049 4.60102 9.00049 4.5C9.00049 4.39899 9.03108 4.30035 9.08825 4.21706C9.14541 4.13378 9.22645 4.06976 9.32071 4.03344L11.176 3.31969C11.2087 3.30714 11.2384 3.28785 11.2632 3.26309C11.2879 3.23832 11.3072 3.20863 11.3198 3.17594L12.0282 1.33375C12.0606 1.24664 12.1159 1.16992 12.1884 1.11176C12.2608 1.05359 12.3477 1.01616 12.4398 1.00344C12.5504 0.990052 12.6623 1.01399 12.7577 1.07145C12.8532 1.12892 12.9267 1.21661 12.9667 1.32063L13.6804 3.17594C13.693 3.20863 13.7122 3.23832 13.737 3.26309C13.7618 3.28785 13.7915 3.30714 13.8242 3.31969L15.6795 4.03344C15.7737 4.06976 15.8548 4.13378 15.9119 4.21706C15.9691 4.30035 15.9997 4.39899 15.9997 4.5C15.9997 4.60102 15.9691 4.69966 15.9119 4.78295C15.8548 4.86623 15.7737 4.93025 15.6795 4.96657L13.8242 5.68032C13.7915 5.69287 13.7618 5.71216 13.737 5.73692C13.7122 5.76168 13.693 5.79137 13.6804 5.82407L12.9667 7.67938C12.9304 7.77371 12.8664 7.85485 12.7831 7.91208C12.6998 7.96932 12.6011 7.99997 12.5001 8Z" fill="#4B5563"/>
</g>
<defs>
<clipPath id="clip0_513_757">
<rect width="16" height="16" fill="white"/>
</clipPath>
</defs>
</svg>
